<?xml version="1.0" encoding="UTF-8"?>
<svg xmlns="http://www.w3.org/2000/svg" version="1.1" viewBox="0 0 96 96">
  <!-- Generator: Adobe Illustrator 28.6.0, SVG Export Plug-In . SVG Version: 1.2.0 Build 709)  -->
  <g>
    <g id="Layer_1">
      <g>
        <path d="M73.48,42.5c10.01,1.7,15.26,4.23,15.26,7.33,0,5.17-18.06,9.36-40.35,9.36s-40.35-4.19-40.35-9.36c0-2.26,2.37-4.01,8.11-5.63" fill="none" stroke="#1f1b46" stroke-linecap="round" stroke-linejoin="round" stroke-width="2"/>
        <path d="M44.15,40.52c1.39-.03,2.81-.05,4.24-.05,2.6,0,1.05-.07,3.52.04" fill="none" stroke="#1f1b46" stroke-linecap="round" stroke-linejoin="round" stroke-width="2"/>
        <path d="M8.05,49.83c0,18.95,14.5,29.01,44.91,29.01" fill="none" stroke="#1f1b46" stroke-linecap="round" stroke-linejoin="round" stroke-width="2"/>
        <path d="M88.74,49.83c0,16.38-16.67,27.6-24.15,27.6" fill="none" stroke="#1f1b46" stroke-linecap="round" stroke-linejoin="round" stroke-width="2"/>
        <path d="M29.4,76.02v5.39s1.1,5,21.45,5c17.07,0,17.07-5,17.07-5v-4.54" fill="none" stroke="#1f1b46" stroke-linecap="round" stroke-linejoin="round" stroke-width="2"/>
        <path d="M42.64,59.09l20.61-41.3,1.35-.54c6.69-2.68,14.16,1.41,15.49,8.49h0s-12.16,30.87-12.16,30.87" fill="none" stroke="#1f1b46" stroke-linecap="round" stroke-linejoin="round" stroke-width="2"/>
        <path d="M18.34,55.08s-4.91-16.47,0-25.59c14.73,0,24.01,5.85,29.66,17.07" fill="none" stroke="#1f1b46" stroke-linecap="round" stroke-linejoin="round" stroke-width="2"/>
        <path d="M25.69,36.27c6.81,4.16,9.23,9.4,10.9,18.81" fill="none" stroke="#62c8d2" stroke-linecap="round" stroke-linejoin="round" stroke-width="2"/>
      </g>
    </g>
  </g>
</svg>