<?xml version="1.0" encoding="UTF-8"?>
<svg xmlns="http://www.w3.org/2000/svg" version="1.1" viewBox="0 0 96 96">
  <!-- Generator: Adobe Illustrator 28.6.0, SVG Export Plug-In . SVG Version: 1.2.0 Build 709)  -->
  <g>
    <g id="Layer_1">
      <g>
        <g>
          <path d="M72.97,82.97c0-11.57,10.81-10.82,14.79-22.37.85-2.47.57-19.41.19-26.84-.1-1.92-1.68-3.42-3.6-3.42h0c-1.99,0-3.61,1.62-3.61,3.61v14.75" fill="none" stroke="#1f1b46" stroke-linecap="round" stroke-linejoin="round" stroke-width="2"/>
          <path d="M53.72,82.97v-10.61c0-5.33,2.67-10.3,7.1-13.25l15.35-10.21c1.52-1.01,3.56-.72,4.74.67h0c1.31,1.54,1.09,3.87-.49,5.14l-9.93,7.64c-1.7,1.31-2.74,3.31-2.75,5.45,0,.03,0,.05,0,.08" fill="none" stroke="#1f1b46" stroke-linecap="round" stroke-linejoin="round" stroke-width="2"/>
        </g>
        <g>
          <path d="M23.03,82.97c0-11.57-10.81-10.82-14.79-22.37-.85-2.47-.57-19.41-.19-26.84.1-1.92,1.68-3.42,3.6-3.42h0c1.99,0,3.61,1.62,3.61,3.61v14.75" fill="none" stroke="#1f1b46" stroke-linecap="round" stroke-linejoin="round" stroke-width="2"/>
          <path d="M42.28,82.97v-10.61c0-5.33-2.67-10.3-7.1-13.25l-15.35-10.21c-1.52-1.01-3.56-.72-4.74.67h0c-1.31,1.54-1.09,3.87.49,5.14l9.93,7.64c1.7,1.31,2.74,3.31,2.75,5.45,0,.03,0,.05,0,.08" fill="none" stroke="#1f1b46" stroke-linecap="round" stroke-linejoin="round" stroke-width="2"/>
        </g>
      </g>
      <g>
        <circle cx="47.96" cy="26.26" r="6.31" fill="none" stroke="#1f1b46" stroke-linecap="round" stroke-linejoin="round" stroke-width="2"/>
        <path d="M37.42,39.28c1.86-3.96,5.88-6.7,10.54-6.7s8.84,2.85,10.65,6.94" fill="none" stroke="#1f1b46" stroke-linecap="round" stroke-linejoin="round" stroke-width="2"/>
        <g>
          <path d="M63.64,46.81c-8.63,8.63-22.63,8.63-31.27,0-6.03-6.03-7.85-14.66-5.46-22.27" fill="none" stroke="#62c8d2" stroke-linecap="round" stroke-linejoin="round" stroke-width="2"/>
          <path d="M32.37,15.54c8.63-8.63,22.63-8.63,31.27,0,6.48,6.48,8.09,15.97,4.86,23.95" fill="none" stroke="#62c8d2" stroke-linecap="round" stroke-linejoin="round" stroke-width="2"/>
          <polygon points="30.05 13.22 35.01 18.17 28.92 18.99 30.05 13.22" fill="none" stroke="#62c8d2" stroke-linecap="round" stroke-linejoin="round" stroke-width="2"/>
          <polygon points="65.95 49.11 60.99 44.16 67.08 43.34 65.95 49.11" fill="none" stroke="#62c8d2" stroke-linecap="round" stroke-linejoin="round" stroke-width="2"/>
        </g>
      </g>
    </g>
  </g>
</svg>