<?xml version="1.0" encoding="UTF-8"?>
<svg xmlns="http://www.w3.org/2000/svg" version="1.1" viewBox="0 0 96 96">
  <!-- Generator: Adobe Illustrator 28.6.0, SVG Export Plug-In . SVG Version: 1.2.0 Build 709)  -->
  <g>
    <g id="Layer_1">
      <g>
        <rect x="8.38" y="6.8" width="75.53" height="47.81" fill="none" stroke="#1f1b46" stroke-linecap="round" stroke-linejoin="round" stroke-width="2"/>
        <path d="M81.3,54.62h5.58c1.85,0,3.35,1.5,3.35,3.35h0c0,1.85-1.5,3.35-3.35,3.35H13.77c-4.42,0-8,3.58-8,8h0c0,4.42,3.58,8,8,8h20.47" fill="none" stroke="#1f1b46" stroke-linecap="round" stroke-linejoin="round" stroke-width="2"/>
        <path d="M58.6,66.24v20.56l-6.13-3.33c-.93-.5-1.96-.76-3.01-.76h-15.23v-11.72h14.02c1.05,0,2.09-.26,3.02-.77l7.33-3.98Z" fill="none" stroke="#1f1b46" stroke-linecap="round" stroke-linejoin="round" stroke-width="2"/>
        <path d="M59.07,66.24h3.47c3.68,0,6.67,2.99,6.67,6.67v7.22c0,3.68-2.99,6.67-6.67,6.67h-3.47v-20.56h0Z" fill="none" stroke="#1f1b46" stroke-linecap="round" stroke-linejoin="round" stroke-width="2"/>
        <path d="M74.97,73.15c1.1,1.05,1.78,2.53,1.78,4.17s-.65,3.03-1.69,4.08" fill="none" stroke="#62c8d2" stroke-linecap="round" stroke-linejoin="round" stroke-width="2"/>
        <path d="M78.84,69.26c2.09,2.04,3.39,4.9,3.39,8.05s-1.39,6.21-3.62,8.27" fill="none" stroke="#62c8d2" stroke-linecap="round" stroke-linejoin="round" stroke-width="2"/>
        <path d="M81.96,65.29c3.26,2.98,5.3,7.26,5.3,12.02s-1.98,8.91-5.15,11.88" fill="none" stroke="#62c8d2" stroke-linecap="round" stroke-linejoin="round" stroke-width="2"/>
        <path d="M45.95,22.97c-3.64,0-6.95-1.36-9.47-3.59l-12.19,17.63c6.12,4.33,13.59,6.89,21.66,6.89s15.87-2.67,22.06-7.17l-12.22-17.67c-2.57,2.42-6.03,3.92-9.84,3.92Z" fill="none" stroke="#1f1b46" stroke-linecap="round" stroke-linejoin="round" stroke-width="2"/>
        <line x1="65.95" y1="13.97" x2="77.67" y2="13.97" fill="none" stroke="#1f1b46" stroke-linecap="round" stroke-linejoin="round" stroke-width="2"/>
        <line x1="65.95" y1="19.05" x2="77.67" y2="19.05" fill="none" stroke="#1f1b46" stroke-linecap="round" stroke-linejoin="round" stroke-width="2"/>
      </g>
    </g>
  </g>
</svg>