<?xml version="1.0" encoding="UTF-8"?>
<svg xmlns="http://www.w3.org/2000/svg" version="1.1" viewBox="0 0 96 96">
  <!-- Generator: Adobe Illustrator 28.6.0, SVG Export Plug-In . SVG Version: 1.2.0 Build 709)  -->
  <g>
    <g id="Layer_1">
      <line x1="66.84" y1="82.06" x2="66.84" y2="90.03" fill="none" stroke="#1f1b46" stroke-linecap="round" stroke-linejoin="round" stroke-width="2"/>
      <circle cx="43.82" cy="18.12" r="13.15" fill="none" stroke="#1f1b46" stroke-linecap="round" stroke-linejoin="round" stroke-width="2"/>
      <path d="M42.47,72.24h0c-12.84,0-23.26-10.41-23.26-23.26v-2.56c0-5.52,4.48-10,10-10h31.63c5.52,0,10,4.48,10,10" fill="none" stroke="#1f1b46" stroke-linecap="round" stroke-linejoin="round" stroke-width="2"/>
      <path d="M34.28,50.4l.82,4.95c.52,3.12,2.97,5.57,6.09,6.08l5.33.88" fill="none" stroke="#1f1b46" stroke-linecap="round" stroke-linejoin="round" stroke-width="2"/>
      <polyline points="74.89 71.24 70.84 82.06 40.05 82.06 51.21 48 83.59 48 79.49 58.96" fill="none" stroke="#62c8d2" stroke-linecap="round" stroke-linejoin="round" stroke-width="2"/>
      <path d="M74.36,58.96h5.13c3.39,0,6.14,2.75,6.14,6.14h0c0,3.39-2.75,6.14-6.14,6.14h-7.92c-2.15,0-3.69-2.08-3.07-4.14l1.49-4.9c.58-1.92,2.36-3.24,4.37-3.24Z" fill="none" stroke="#1f1b46" stroke-linecap="round" stroke-linejoin="round" stroke-width="2"/>
      <line x1="25.42" y1="65.77" x2="25.42" y2="90.03" fill="none" stroke="#1f1b46" stroke-linecap="round" stroke-linejoin="round" stroke-width="2"/>
    </g>
  </g>
</svg>