<?xml version="1.0" encoding="UTF-8"?>
<svg xmlns="http://www.w3.org/2000/svg" version="1.1" viewBox="0 0 96 96">
  <!-- Generator: Adobe Illustrator 28.6.0, SVG Export Plug-In . SVG Version: 1.2.0 Build 709)  -->
  <g>
    <g id="Layer_1">
      <g>
        <rect x="5.16" y="5.16" width="85.67" height="85.67" rx="5" ry="5" fill="none" stroke="#1f1b46" stroke-linecap="round" stroke-linejoin="round" stroke-width="2"/>
        <line x1="12.86" y1="11.72" x2="23.72" y2="11.72" fill="none" stroke="#1f1b46" stroke-linecap="round" stroke-linejoin="round" stroke-width="2"/>
        <line x1="12.86" y1="17.44" x2="23.72" y2="17.44" fill="none" stroke="#1f1b46" stroke-linecap="round" stroke-linejoin="round" stroke-width="2"/>
        <line x1="40.75" y1="83.72" x2="55.12" y2="83.72" fill="none" stroke="#1f1b46" stroke-linecap="round" stroke-linejoin="round" stroke-width="2"/>
        <g>
          <path d="M53.19,46.69c-.88-2.11-1.38-4.45-1.38-6.92,0-9.24,6.9-15.71,15.41-15.71s15.41,7.49,15.41,16.73-6.9,15.71-15.41,15.71c-1.82,0-3.56-.34-5.18-.97" fill="none" stroke="#1f1b46" stroke-linecap="round" stroke-linejoin="round" stroke-width="2"/>
          <path d="M67.7,56.39c-3.05,4.49-6.14,12.13-25.24,15.22-14.3,2.32-29.02-7.47-21.56-22.82" fill="none" stroke="#1f1b46" stroke-linecap="round" stroke-linejoin="round" stroke-width="2"/>
          <path d="M32.89,48.16h-14.08c-3.63,0-6.24-3.49-5.22-6.97l2.25-7.67c.53-1.8,2.31-2.92,4.15-2.63h0c2.16.34,3.56,2.47,3.02,4.59l-.62,2.44c-.08.32.19.61.51.57l12.55-1.83c4.25-.62,7.94,2.94,7.47,7.2l-1.72,15.86" fill="none" stroke="#1f1b46" stroke-linecap="round" stroke-linejoin="round" stroke-width="2"/>
          <path d="M51.81,39.76c-6.65-3.33-9.52.51-9.52.51" fill="none" stroke="#1f1b46" stroke-linecap="round" stroke-linejoin="round" stroke-width="2"/>
          <line x1="42.15" y1="50.92" x2="51.81" y2="60.58" fill="none" stroke="#1f1b46" stroke-linecap="round" stroke-linejoin="round" stroke-width="2"/>
          <path d="M23.99,52.11c-1.45,4.99.92,10.49,5.41,12.94" fill="none" stroke="#62c8d2" stroke-linecap="round" stroke-linejoin="round" stroke-width="2"/>
        </g>
      </g>
    </g>
  </g>
</svg>