<?xml version="1.0" encoding="UTF-8"?>
<svg xmlns="http://www.w3.org/2000/svg" version="1.1" viewBox="0 0 96 96">
  <!-- Generator: Adobe Illustrator 28.6.0, SVG Export Plug-In . SVG Version: 1.2.0 Build 709)  -->
  <g>
    <g id="Layer_1">
      <g>
        <path d="M48.71,78.43h36.56c1.1,0,2,.9,2,2v6.08c0,1.1-.9,2-2,2H8.41c-1.1,0-2-.9-2-2v-6.08c0-1.1.9-2,2-2h12.38" fill="none" stroke="#1f1b46" stroke-linecap="round" stroke-linejoin="round" stroke-width="2"/>
        <path d="M42.4,65.44h34.08c1.75,0,3.17,1.42,3.17,3.17h0c0,1.75-1.42,3.17-3.17,3.17h-28.6" fill="none" stroke="#1f1b46" stroke-linecap="round" stroke-linejoin="round" stroke-width="2"/>
        <path d="M16.79,78.43l12.22-13.85c3.54-4.01,9.86-3.78,13.1.47l10.19,13.38" fill="none" stroke="#1f1b46" stroke-linecap="round" stroke-linejoin="round" stroke-width="2"/>
        <circle cx="34.98" cy="69.25" r="2.53" fill="none" stroke="#1f1b46" stroke-linecap="round" stroke-linejoin="round" stroke-width="2"/>
        <polyline points="32.04 34.54 17.76 48.82 17.76 77.33" fill="none" stroke="#1f1b46" stroke-linecap="round" stroke-linejoin="round" stroke-width="2"/>
        <polyline points="39.44 41.08 31.69 48.82 31.69 62.66" fill="none" stroke="#1f1b46" stroke-linecap="round" stroke-linejoin="round" stroke-width="2"/>
        <circle cx="39.4" cy="33.6" r="7.44" fill="none" stroke="#1f1b46" stroke-linecap="round" stroke-linejoin="round" stroke-width="2"/>
        <g>
          <path d="M35.09,27.55l-6.22-9.59c-.6-.93-.34-2.17.59-2.77l10.16-6.59c.93-.6,2.17-.34,2.77.59l21.99,33.91c.6.93.34,2.17-.59,2.77l-10.16,6.59c-.93.6-2.17.34-2.77-.59l-7.02-10.83" fill="none" stroke="#1f1b46" stroke-linecap="round" stroke-linejoin="round" stroke-width="2"/>
          <line x1="48.13" y1="47.67" x2="61.65" y2="38.91" fill="none" stroke="#1f1b46" stroke-linecap="round" stroke-linejoin="round" stroke-width="2"/>
          <path d="M55.42,48.75h9.88v3.96c0,1.1-.9,2-2,2h-5.88c-1.1,0-2-.9-2-2v-3.96h0Z" transform="translate(-18.43 41.16) rotate(-32.96)" fill="none" stroke="#1f1b46" stroke-linecap="round" stroke-linejoin="round" stroke-width="2"/>
          <path d="M31.06,4.89h2.79c1.1,0,2,.9,2,2v5.56h-6.79v-5.56c0-1.1.9-2,2-2Z" transform="translate(.5 19.05) rotate(-32.96)" fill="none" stroke="#1f1b46" stroke-linecap="round" stroke-linejoin="round" stroke-width="2"/>
        </g>
        <line x1="40.66" y1="14.39" x2="54.89" y2="35.97" fill="none" stroke="#62c8d2" stroke-linecap="round" stroke-linejoin="round" stroke-width="2"/>
      </g>
    </g>
  </g>
</svg>