<?xml version="1.0" encoding="UTF-8"?>
<svg xmlns="http://www.w3.org/2000/svg" version="1.1" viewBox="0 0 96 96">
  <!-- Generator: Adobe Illustrator 28.6.0, SVG Export Plug-In . SVG Version: 1.2.0 Build 709)  -->
  <g>
    <g id="Layer_1">
      <line x1="40.75" y1="83.81" x2="55.12" y2="83.81" fill="none" stroke="#1f1b46" stroke-linecap="round" stroke-linejoin="round" stroke-width="2"/>
      <g>
        <rect x="5.16" y="5.16" width="85.67" height="85.67" rx="5" ry="5" fill="none" stroke="#1f1b46" stroke-linecap="round" stroke-linejoin="round" stroke-width="2"/>
        <line x1="12.86" y1="11.72" x2="23.72" y2="11.72" fill="none" stroke="#1f1b46" stroke-linecap="round" stroke-linejoin="round" stroke-width="2"/>
        <line x1="12.86" y1="17.44" x2="23.72" y2="17.44" fill="none" stroke="#1f1b46" stroke-linecap="round" stroke-linejoin="round" stroke-width="2"/>
        <g>
          <line x1="32.34" y1="60.12" x2="38.43" y2="60.12" fill="none" stroke="#62c8d2" stroke-linecap="round" stroke-linejoin="round" stroke-width="2"/>
          <g>
            <line x1="30.98" y1="58.76" x2="37.29" y2="65.07" fill="none" stroke="#62c8d2" stroke-linecap="round" stroke-linejoin="round" stroke-width="2"/>
            <line x1="30.98" y1="53.77" x2="25.02" y2="58.09" fill="none" stroke="#62c8d2" stroke-linecap="round" stroke-linejoin="round" stroke-width="2"/>
            <line x1="34.19" y1="47.7" x2="28.68" y2="42.19" fill="none" stroke="#62c8d2" stroke-linecap="round" stroke-linejoin="round" stroke-width="2"/>
            <path d="M38.39,49.42l7.6-7.6c1.12-1.12,2.94-1.12,4.06,0l7.4,7.4" fill="none" stroke="#1f1b46" stroke-linecap="round" stroke-linejoin="round" stroke-width="2"/>
            <path d="M40.8,35.97h0c0-4.88-5.9-7.32-9.34-3.87l-10.2,10.2c-1.52,1.52-2.37,3.58-2.37,5.72v21.38c0,3.66,2.97,6.62,6.62,6.62h6.49c7.61,0,13.79-6.17,13.79-13.79v-11.97" fill="none" stroke="#1f1b46" stroke-linecap="round" stroke-linejoin="round" stroke-width="2"/>
            <g>
              <line x1="65.02" y1="58.76" x2="58.71" y2="65.07" fill="none" stroke="#62c8d2" stroke-linecap="round" stroke-linejoin="round" stroke-width="2"/>
              <line x1="65.02" y1="53.77" x2="70.98" y2="58.09" fill="none" stroke="#62c8d2" stroke-linecap="round" stroke-linejoin="round" stroke-width="2"/>
              <line x1="61.81" y1="47.7" x2="67.32" y2="42.19" fill="none" stroke="#62c8d2" stroke-linecap="round" stroke-linejoin="round" stroke-width="2"/>
              <path d="M55.2,35.97h0c0-4.88,5.9-7.32,9.34-3.87l10.2,10.2c1.52,1.52,2.37,3.58,2.37,5.72v21.38c0,3.66-2.97,6.62-6.62,6.62h-6.49c-7.61,0-13.79-6.17-13.79-13.79v-11.97" fill="none" stroke="#1f1b46" stroke-linecap="round" stroke-linejoin="round" stroke-width="2"/>
              <path d="M50.21,13.79v21.46c0,.96.38,1.88,1.06,2.56l12.68,12.68c.68.68,1.06,1.6,1.06,2.56v15.28" fill="none" stroke="#1f1b46" stroke-linecap="round" stroke-linejoin="round" stroke-width="2"/>
            </g>
            <path d="M45.79,13.79v21.46c0,.96-.38,1.88-1.06,2.56l-12.68,12.68c-.68.68-1.06,1.6-1.06,2.56v15.28" fill="none" stroke="#1f1b46" stroke-linecap="round" stroke-linejoin="round" stroke-width="2"/>
          </g>
          <line x1="64.57" y1="44.91" x2="62.95" y2="41.06" fill="none" stroke="#62c8d2" stroke-linecap="round" stroke-linejoin="round" stroke-width="2"/>
          <line x1="68" y1="55.93" x2="70.98" y2="53.77" fill="none" stroke="#62c8d2" stroke-linecap="round" stroke-linejoin="round" stroke-width="2"/>
          <line x1="62.95" y1="60.83" x2="57.61" y2="60.83" fill="none" stroke="#62c8d2" stroke-linecap="round" stroke-linejoin="round" stroke-width="2"/>
          <line x1="28" y1="55.93" x2="25.37" y2="53.3" fill="none" stroke="#62c8d2" stroke-linecap="round" stroke-linejoin="round" stroke-width="2"/>
          <line x1="31.89" y1="44.74" x2="34.12" y2="42.51" fill="none" stroke="#62c8d2" stroke-linecap="round" stroke-linejoin="round" stroke-width="2"/>
        </g>
      </g>
    </g>
  </g>
</svg>