<?xml version="1.0" encoding="UTF-8"?>
<svg xmlns="http://www.w3.org/2000/svg" version="1.1" viewBox="0 0 96 96">
  <!-- Generator: Adobe Illustrator 28.6.0, SVG Export Plug-In . SVG Version: 1.2.0 Build 709)  -->
  <g>
    <g id="Layer_1">
      <g>
        <path d="M16.24,74h-5.24c-2.21,0-4-1.79-4-4V26.43c0-2.21,1.79-4,4-4h54.67c3.82,0,7.21,2.43,8.43,6.04l4.69,13.82,9.14,8.66c.8.76,1.25,1.81,1.25,2.9v16.15c0,2.21-1.79,4-4,4h-5.95" fill="none" stroke="#1f1b46" stroke-linecap="round" stroke-linejoin="round" stroke-width="2"/>
        <line x1="61.91" y1="74" x2="33.86" y2="74" fill="none" stroke="#1f1b46" stroke-linecap="round" stroke-linejoin="round" stroke-width="2"/>
        <polygon points="31.72 35.56 31.72 40.76 27.05 40.76 27.05 45.43 21.86 45.43 21.86 40.76 17.19 40.76 17.19 35.56 21.86 35.56 21.86 30.89 27.05 30.89 27.05 35.56 31.72 35.56" fill="none" stroke="#62c8d2" stroke-linecap="round" stroke-linejoin="round" stroke-width="2"/>
        <line x1="40.55" y1="54.26" x2="75.04" y2="54.26" fill="none" stroke="#1f1b46" stroke-linecap="round" stroke-linejoin="round" stroke-width="2"/>
        <path d="M40.55,46.86h29.38c1.43,0,2.4-1.46,1.84-2.78l-5.72-13.59c-.31-.74-1.04-1.22-1.84-1.22h-23.67v17.59Z" fill="none" stroke="#1f1b46" stroke-linecap="round" stroke-linejoin="round" stroke-width="2"/>
        <line x1="50.47" y1="46.86" x2="50.47" y2="29.27" fill="none" stroke="#1f1b46" stroke-linecap="round" stroke-linejoin="round" stroke-width="2"/>
        <line x1="40.83" y1="59.98" x2="47.81" y2="59.98" fill="none" stroke="#1f1b46" stroke-linecap="round" stroke-linejoin="round" stroke-width="2"/>
        <g>
          <circle cx="70.71" cy="70.88" r="9.36" fill="none" stroke="#1f1b46" stroke-linecap="round" stroke-linejoin="round" stroke-width="2"/>
          <circle cx="70.71" cy="70.88" r="4.33" fill="none" stroke="#1f1b46" stroke-linecap="round" stroke-linejoin="round" stroke-width="2"/>
        </g>
        <g>
          <circle cx="25.05" cy="70.88" r="9.36" fill="none" stroke="#1f1b46" stroke-linecap="round" stroke-linejoin="round" stroke-width="2"/>
          <circle cx="25.05" cy="70.88" r="4.33" fill="none" stroke="#1f1b46" stroke-linecap="round" stroke-linejoin="round" stroke-width="2"/>
        </g>
        <path d="M55.87,15.22h0c3.33,0,6.03,2.7,6.03,6.03v1.18h-12.07v-1.18c0-3.33,2.7-6.03,6.03-6.03Z" fill="none" stroke="#1f1b46" stroke-linecap="round" stroke-linejoin="round" stroke-width="2"/>
      </g>
    </g>
  </g>
</svg>