<?xml version="1.0" encoding="UTF-8"?>
<svg xmlns="http://www.w3.org/2000/svg" version="1.1" viewBox="0 0 96 96">
  <!-- Generator: Adobe Illustrator 28.6.0, SVG Export Plug-In . SVG Version: 1.2.0 Build 709)  -->
  <g>
    <g id="Layer_1">
      <g>
        <path d="M80.44,62.84c-5.76,13.39-19.07,22.77-34.57,22.77-20.77,0-37.61-16.84-37.61-37.61S25.09,10.39,45.86,10.39s37.61,16.84,37.61,37.61c0,3.11-.38,6.13-1.09,9.02" fill="none" stroke="#1f1b46" stroke-linecap="round" stroke-linejoin="round" stroke-width="2"/>
        <path d="M60.94,62.84c-3.84,3.9-9.17,6.31-15.07,6.31-11.68,0-21.15-9.47-21.15-21.15s9.47-21.15,21.15-21.15,21.15,9.47,21.15,21.15c0,3.23-.72,6.29-2.02,9.02" fill="none" stroke="#1f1b46" stroke-linecap="round" stroke-linejoin="round" stroke-width="2"/>
        <path d="M69.64,33.56c2.56,4.21,4.04,9.15,4.04,14.44" fill="none" stroke="#62c8d2" stroke-linecap="round" stroke-linejoin="round" stroke-width="2"/>
        <path d="M39.54,20.91c2.03-.47,4.15-.72,6.33-.72,2.72,0,5.34.39,7.83,1.12" fill="none" stroke="#62c8d2" stroke-linecap="round" stroke-linejoin="round" stroke-width="2"/>
        <path d="M19.02,40.7c1.03-3.8,2.85-7.27,5.26-10.24" fill="none" stroke="#62c8d2" stroke-linecap="round" stroke-linejoin="round" stroke-width="2"/>
        <path d="M33.4,72.87c-4.19-2.1-7.77-5.23-10.42-9.05" fill="none" stroke="#62c8d2" stroke-linecap="round" stroke-linejoin="round" stroke-width="2"/>
        <path d="M61.41,71.06c-4.44,3-9.79,4.75-15.55,4.75" fill="none" stroke="#62c8d2" stroke-linecap="round" stroke-linejoin="round" stroke-width="2"/>
        <path d="M45.86,62.84c-8.19,0-14.84-6.64-14.84-14.84s6.64-14.84,14.84-14.84,14.84,6.64,14.84,14.84c0,3.39-1.14,6.52-3.06,9.02" fill="none" stroke="#1f1b46" stroke-linecap="round" stroke-linejoin="round" stroke-width="2"/>
        <line x1="34.09" y1="57.02" x2="87.75" y2="57.02" fill="none" stroke="#1f1b46" stroke-linecap="round" stroke-linejoin="round" stroke-width="2"/>
        <line x1="46.21" y1="62.84" x2="87.75" y2="62.84" fill="none" stroke="#1f1b46" stroke-linecap="round" stroke-linejoin="round" stroke-width="2"/>
      </g>
    </g>
  </g>
</svg>